<svg width="335" height="947" viewBox="0 0 335 947" fill="none" xmlns="http://www.w3.org/2000/svg">
<path d="M330.455 508.348C330.455 508.348 330.581 508.176 330.824 508.266L330.115 508.452C322.511 510.06 319.387 501.699 319.387 501.699C319.387 501.699 322.484 510.217 314.89 512.713L314.501 512.824L314.375 512.996L314.864 512.87C322.686 511.024 325.762 519.571 325.762 519.571C325.762 519.571 322.808 511.158 330.039 508.616L330.698 508.438L330.455 508.348Z" fill="white"/>
<path d="M274.39 528.892L274.051 528.995C272.924 529.13 271.785 528.873 270.826 528.267C269.866 527.661 269.145 526.743 268.783 525.667C268.783 525.667 270.181 529.772 266.573 531.092L266.468 531.236L266.594 531.064C267.736 530.889 268.903 531.126 269.886 531.733C270.87 532.34 271.605 533.277 271.96 534.376C271.96 534.376 270.542 530.3 274.051 528.995L274.39 528.892Z" fill="white"/>
<path d="M332.73 462.604L332.39 462.708C331.263 462.843 330.124 462.586 329.165 461.98C328.206 461.374 327.484 460.456 327.123 459.38C327.123 459.38 328.52 463.484 324.912 464.805C326.054 464.623 327.223 464.854 328.21 465.455C329.198 466.057 329.938 466.991 330.3 468.089C330.3 468.089 328.881 464.013 332.39 462.708L332.709 462.633L332.73 462.604Z" fill="white"/>
<path d="M328.798 549.218L328.429 549.301C327.323 549.366 326.226 549.056 325.317 548.423C324.407 547.789 323.738 546.867 323.416 545.807C323.416 545.807 324.813 549.911 321.234 551.253C322.363 551.111 323.506 551.368 324.464 551.982C325.423 552.595 326.136 553.525 326.48 554.609C326.48 554.609 325.062 550.533 328.599 549.249L328.918 549.174L328.798 549.218Z" fill="white"/>
<path d="M311.048 474.244L311.408 474.112L310.708 474.348C303.103 475.956 300.029 467.587 300.029 467.587C300.029 467.587 303.126 476.105 295.532 478.602L295.093 478.72L294.967 478.892L295.456 478.766C303.278 476.92 306.375 485.438 306.375 485.438C306.375 485.438 303.4 477.054 310.653 474.483L311.283 474.284C311.203 474.283 311.123 474.27 311.048 474.244Z" fill="white"/>
<path d="M343.109 744.709L342.769 744.813C341.642 744.962 340.498 744.714 339.533 744.112C338.568 743.51 337.843 742.592 337.481 741.514C337.481 741.514 338.899 745.59 335.291 746.91L335.187 747.054L335.291 746.91C336.427 746.734 337.589 746.969 338.567 747.572C339.546 748.175 340.277 749.108 340.63 750.202C340.63 750.202 339.232 746.097 342.741 744.792L343.06 744.717L343.109 744.709Z" fill="white"/>
<path d="M345.071 690.856L345.439 690.773L344.731 690.959C337.126 692.568 334.003 684.207 334.003 684.207C334.003 684.207 337.1 692.724 329.506 695.221L329.158 695.275L329.696 695.141C337.497 693.324 340.566 701.821 340.566 701.821C340.566 701.821 337.62 693.457 344.872 690.886L345.502 690.687L345.071 690.856Z" fill="white"/>
<path d="M310.023 705.479L309.655 705.561C308.534 705.698 307.401 705.443 306.447 704.841C305.492 704.238 304.775 703.325 304.416 702.255C304.416 702.255 305.813 706.359 302.177 707.659L302.072 707.802L302.198 707.63C303.338 707.47 304.499 707.713 305.479 708.318C306.459 708.923 307.197 709.851 307.565 710.943C307.565 710.943 306.146 706.867 309.655 705.561L309.974 705.487L310.023 705.479Z" fill="white"/>
<path d="M303.309 730.586L303.225 730.701C302.099 730.836 300.96 730.579 300 729.973C299.041 729.367 298.32 728.449 297.958 727.373C297.958 727.373 299.355 731.478 295.747 732.798L295.643 732.942L295.747 732.798C296.889 732.617 298.058 732.847 299.046 733.449C300.033 734.05 300.774 734.984 301.135 736.082C301.135 736.082 299.717 732.006 303.225 730.701L303.544 730.626L303.309 730.586Z" fill="white"/>
<path d="M311.743 660.914L311.375 660.996C310.248 661.132 309.109 660.875 308.15 660.268C307.191 659.662 306.469 658.744 306.107 657.669C306.107 657.669 307.505 661.773 303.897 663.094L303.792 663.237L303.897 663.094C305.032 662.918 306.192 663.149 307.172 663.746C308.153 664.343 308.891 665.268 309.256 666.357C309.256 666.357 307.838 662.281 311.346 660.976L311.694 660.922L311.743 660.914Z" fill="white"/>
<path d="M314.982 758.72L314.613 758.802C313.493 758.938 312.36 758.684 311.405 758.081C310.451 757.479 309.734 756.565 309.374 755.495C309.374 755.495 310.772 759.6 307.164 760.92L307.29 760.748C308.426 760.558 309.593 760.782 310.577 761.382C311.561 761.981 312.297 762.914 312.649 764.011C312.649 764.011 311.252 759.907 314.768 758.651L315.087 758.576L314.982 758.72Z" fill="white"/>
<path d="M330.405 780.706L330.065 780.809C328.939 780.944 327.8 780.687 326.84 780.081C325.881 779.475 325.16 778.557 324.798 777.481C324.798 777.481 326.195 781.586 322.608 782.878L322.878 782.811C324.013 782.635 325.175 782.869 326.153 783.472C327.132 784.076 327.863 785.008 328.216 786.102C328.216 786.102 326.818 781.998 330.335 780.742L330.674 780.639C330.674 780.639 330.434 780.727 330.405 780.706Z" fill="white"/>
<g style="mix-blend-mode:multiply" opacity="0.6">
<path d="M333.537 267.087C330.707 267.897 327.943 268.92 325.267 270.145C321.408 268.107 317.401 266.365 313.278 264.935C311.003 264.194 307.54 265.136 307.164 267.634C307.174 270.558 307.786 273.448 308.96 276.125C309.531 277.72 310.221 279.27 311.025 280.761L310.815 281.048C308.743 283.548 306.823 286.17 305.066 288.901C303.856 291.096 302.169 293.339 304.182 295.341C308.315 297.717 313.07 298.788 317.823 298.415C318.754 300.808 319.893 303.115 321.228 305.31C321.656 306.151 322.311 306.857 323.119 307.347C323.927 307.837 324.855 308.093 325.8 308.084C327.526 308.071 329.784 304.926 330.569 302.771C332.253 297.885 333.12 296.099 333.556 294.481C336.923 293.856 340.249 293.027 343.516 292C347.449 290.476 348.303 289.429 348.401 288.093C348.649 285.589 342.069 279.364 339.278 277.584C340.504 275.488 343.083 269.981 340.285 267.669C339.255 267.131 338.128 266.803 336.969 266.703C335.811 266.603 334.644 266.734 333.537 267.087Z" fill="#5DC1EE"/>
</g>
<path d="M331.114 267.69C327.732 268.677 324.41 269.862 321.166 271.237C318.029 269.206 314.73 267.438 311.301 265.952C310.829 265.766 310.323 265.684 309.816 265.71C309.31 265.736 308.815 265.87 308.364 266.103C307.914 266.337 307.519 266.664 307.206 267.063C306.893 267.462 306.668 267.923 306.548 268.416C306.474 271.171 307.01 273.909 308.119 276.433C308.607 277.924 309.23 279.367 309.981 280.745L309.771 281.031C307.804 283.418 305.975 285.916 304.295 288.512C303.118 290.6 301.545 292.75 303.357 294.604C304.796 295.622 306.574 296.039 308.315 295.769C310.893 295.675 312.923 295.488 315.613 295.3C316.727 298.03 318.045 300.672 319.555 303.205C320.358 304.453 322.416 307.235 324.256 306.645C326.096 306.056 326.522 304.211 327.189 302.278C328.119 299.023 328.786 295.698 329.184 292.337C332.518 291.998 335.832 291.485 339.112 290.801C340.892 290.474 344.819 289.74 344.779 287.509C344.739 285.279 342.752 284.265 341.462 283.321C339.026 281.537 336.504 279.691 333.879 278.166C334.992 276.163 336.148 274.104 337.167 271.989C337.882 270.531 338.32 268.431 336.772 267.298C335.224 266.165 332.771 267.23 331.114 267.69Z" fill="url(#paint0_linear_25_5108)"/>
<path style="mix-blend-mode:multiply" d="M331.114 267.69L329.684 268.14C332.174 267.806 333.788 268.547 334.473 270.017C335.158 271.487 333.553 275.242 332.312 277.239C330.763 279.715 333.897 279.764 335.375 282.255C338.295 287.165 332.275 290.638 328.536 290.454C326.076 290.327 326.325 297.023 321.513 297.463C320.734 297.483 319.962 297.317 319.26 296.98C318.558 296.642 317.946 296.142 317.476 295.52C315.706 292.948 314.254 293.91 311.825 293.98C307.91 293.976 303.454 292.607 305.605 289.428C307.282 286.998 309.093 284.665 311.03 282.438C311.953 281.177 309.996 279.04 308.48 275.157C308.107 274.223 306.957 271.224 306.398 270.243C306.686 272.41 307.228 274.536 308.014 276.576C308.501 278.067 309.124 279.511 309.875 280.888L309.665 281.175C307.698 283.561 305.87 286.059 304.189 288.655C303.013 290.744 301.439 292.893 303.251 294.748C304.69 295.765 306.468 296.183 308.21 295.912C310.787 295.818 312.817 295.631 315.508 295.444C316.622 298.174 317.939 300.816 319.45 303.348C320.253 304.596 322.31 307.379 324.15 306.789C325.991 306.199 326.417 304.354 327.084 302.421C328.014 299.166 328.681 295.842 329.078 292.48C332.412 292.141 335.726 291.628 339.007 290.944C340.786 290.618 344.713 289.883 344.673 287.653C344.633 285.422 342.647 284.408 341.357 283.464C338.921 281.681 336.398 279.834 333.773 278.309C334.887 276.307 336.042 274.247 337.062 272.132C337.777 270.675 338.214 268.574 336.666 267.441C335.119 266.308 332.771 267.23 331.114 267.69Z" fill="url(#paint1_radial_25_5108)"/>
<g style="mix-blend-mode:multiply">
<path d="M331.114 267.69C327.732 268.677 324.41 269.862 321.166 271.237C318.029 269.206 314.73 267.438 311.301 265.952C310.829 265.766 310.323 265.684 309.816 265.71C309.31 265.736 308.815 265.87 308.364 266.103C307.914 266.337 307.519 266.664 307.206 267.063C306.893 267.462 306.668 267.923 306.548 268.416C306.474 271.171 307.01 273.909 308.119 276.433C308.607 277.924 309.23 279.367 309.981 280.745L309.771 281.031C307.804 283.418 305.975 285.916 304.295 288.512C303.118 290.6 301.545 292.75 303.357 294.604C304.796 295.622 306.574 296.039 308.315 295.769C310.893 295.675 312.923 295.488 315.613 295.3C316.727 298.03 318.045 300.672 319.555 303.205C320.358 304.453 322.416 307.235 324.256 306.645C326.096 306.056 326.522 304.211 327.189 302.278C328.119 299.023 328.786 295.698 329.184 292.337C332.518 291.998 335.832 291.485 339.112 290.801C340.892 290.474 344.819 289.74 344.779 287.509C344.739 285.279 342.752 284.265 341.462 283.321C339.026 281.537 336.504 279.691 333.879 278.166C334.992 276.163 336.148 274.104 337.167 271.989C337.882 270.531 338.32 268.431 336.772 267.298C335.224 266.165 332.771 267.23 331.114 267.69ZM335.946 270.17C335.757 271.2 335.344 272.175 334.735 273.026C333.79 274.799 332.816 276.551 331.784 278.261C331.705 278.406 331.661 278.567 331.658 278.733C331.654 278.898 331.69 279.061 331.763 279.209C331.836 279.357 331.943 279.486 332.076 279.584C332.209 279.682 332.363 279.747 332.526 279.773C334.523 281.014 336.309 282.542 338.426 283.74C339.884 284.521 341.224 285.503 342.41 286.656C344.476 289.005 338.826 289.447 337.478 289.605C334.401 290.081 332.083 290.541 328.938 290.748C328.314 290.819 327.911 291.009 327.863 291.194C327.531 293.152 326.534 297.88 326.386 299.225C326.071 300.95 325.574 302.637 324.903 304.258C323.554 307.364 320.799 302.046 320.231 300.838C319.099 298.777 318.257 296.62 317.174 294.551C316.782 293.823 316.791 293.39 316.06 293.427C312.929 293.74 309.782 293.862 306.637 293.792C305.584 293.726 304.163 293.082 304.426 291.821C306.104 288.595 308.101 285.544 310.387 282.715C311.265 281.817 311.828 281.349 311.755 281.207C310.8 279.056 309.975 276.85 309.284 274.6C308.93 273.461 306.882 268.44 309.009 267.4C310.28 266.745 312.798 268.237 313.82 268.765C316.273 270.164 318.442 271.532 320.889 273.059C321.118 273.227 322.128 272.689 323.514 272.119C326.632 270.658 329.882 269.5 333.221 268.66C333.825 268.618 335.948 268.543 335.946 270.17Z" fill="#D47F02"/>
</g>
<path d="M304.988 293.158C304.988 293.158 304.155 293.033 305.452 290.901C307.002 288.422 308.819 286.121 310.871 284.039L312.773 282.042C311.899 280.169 310.774 278.157 310.774 278.157L311.856 281.37C309.594 284.112 307.492 286.983 305.562 289.969C304.385 291.396 304.085 293.069 304.988 293.158Z" fill="#FFF6E6"/>
<path d="M316.03 270.339C316.03 270.339 310.493 269.544 309.87 272.741C309.246 275.938 312.596 278.698 314.593 280.6C312.676 278.889 311.727 278.502 308.086 275.177C304.446 271.852 305.926 270.25 310.024 270.125C312.028 269.969 314.042 270.041 316.03 270.339Z" fill="#FFF6E6"/>
<path d="M318.332 272.463C318.332 272.463 320.396 273.974 321.485 274.771C325.083 272.858 328.792 271.164 332.594 269.698C334.502 269.377 335.344 269.73 335.6 270.402C335.6 270.402 335.853 268.914 332.951 269.21C328.642 270.425 324.439 271.985 320.38 273.875L318.332 272.463Z" fill="#FFF6E6"/>
<path d="M310.435 293.535C312.687 293.236 314.905 292.722 317.06 292.002C317.06 292.002 320.86 303.588 323.29 304.838C323.29 304.838 321.94 304.819 320.3 301.285L316.348 293.154C316.348 293.154 312.359 293.492 310.435 293.535Z" fill="#FFF6E6"/>
<path d="M360.711 871.121C357.303 866.087 352.345 862.303 346.59 860.344C336.978 857.086 326.803 855.824 316.687 856.635L314.132 856.877L327.773 824.472L328.76 824.446C333.344 824.272 337.921 824.924 342.274 826.371C344.13 826.911 345.813 827.924 347.159 829.311C348.506 830.698 349.468 832.41 349.953 834.281L346.94 834.849C346.544 833.498 345.808 832.272 344.801 831.289C343.794 830.305 342.551 829.597 341.192 829.232C337.525 828.005 333.677 827.406 329.811 827.46L318.974 853.51C328.696 852.951 338.435 854.293 347.643 857.462C354.103 859.642 359.649 863.919 363.4 869.612L360.797 871.184L360.711 871.121Z" fill="#89A83D"/>
<path d="M347.695 833.157C349.596 833.622 351.31 834.654 352.61 836.117C353.909 837.58 354.732 839.404 354.968 841.347C355.204 843.289 354.843 845.257 353.932 846.989C353.021 848.721 351.604 850.134 349.87 851.04C348.136 851.946 346.167 852.303 344.225 852.061C342.283 851.82 340.461 850.993 339.002 849.689C337.542 848.386 336.514 846.669 336.055 844.767C335.596 842.865 335.727 840.868 336.432 839.043C337.153 836.774 338.742 834.883 340.852 833.781C342.961 832.678 345.421 832.454 347.695 833.157Z" fill="#A5CD3A"/>
<path d="M340.324 852.368C337.813 851.203 335.855 849.107 334.862 846.524C333.869 843.941 333.921 841.073 335.005 838.526C335.881 835.903 337.743 833.723 340.196 832.447C342.65 831.171 345.504 830.899 348.154 831.688C350.668 832.857 352.628 834.959 353.617 837.549C354.606 840.139 354.547 843.012 353.452 845.559C352.558 848.18 350.679 850.35 348.212 851.609C345.745 852.869 342.885 853.118 340.238 852.305L340.324 852.368ZM341.435 849.528C343.329 850.078 345.364 849.863 347.101 848.929C348.839 847.994 350.141 846.416 350.726 844.532C351.543 842.733 351.624 840.687 350.952 838.83C350.28 836.972 348.908 835.451 347.13 834.592C345.239 834.07 343.218 834.306 341.499 835.251C339.78 836.196 338.497 837.774 337.924 839.651C337.102 841.429 337.009 843.459 337.665 845.305C338.322 847.151 339.675 848.667 341.435 849.528Z" fill="#89A83D"/>
<path d="M307.079 382.067C307.084 376.27 305.176 370.633 301.649 366.031C295.808 358.491 288.508 352.204 280.185 347.546L278.076 346.398L305.806 328.18L306.552 328.726C310.229 331.009 313.476 333.922 316.143 337.332C317.296 338.729 318.074 340.397 318.403 342.178C318.732 343.959 318.601 345.795 318.023 347.512L315.36 346.399C315.769 345.128 315.843 343.773 315.574 342.465C315.305 341.158 314.702 339.942 313.824 338.936C311.607 336.102 308.944 333.647 305.939 331.667L283.744 346.233C291.64 350.924 298.557 357.094 304.117 364.404C308.037 369.46 310.178 375.669 310.204 382.066L307.311 381.93L307.079 382.067Z" fill="#89A83D"/>
<path d="M309.932 379.491C311.319 382.008 311.724 384.949 311.069 387.746C310.413 390.543 308.744 392.999 306.384 394.637C304.024 396.276 301.141 396.982 298.291 396.619C295.441 396.255 292.826 394.849 290.953 392.67C289.613 390.169 289.235 387.263 289.89 384.502C290.546 381.741 292.19 379.315 294.511 377.683C296.833 376.051 299.671 375.325 302.491 375.643C305.311 375.961 307.917 377.3 309.818 379.407L309.932 379.491Z" fill="#A5CD3A"/>
<path d="M289.907 393.62C288.176 390.854 287.612 387.514 288.34 384.333C289.067 381.153 291.026 378.39 293.788 376.652C296.355 374.632 299.618 373.711 302.863 374.09C306.107 374.47 309.07 376.118 311.103 378.674C312.822 381.45 313.377 384.792 312.646 387.975C311.916 391.157 309.959 393.923 307.201 395.671C304.635 397.69 301.372 398.607 298.13 398.223C294.887 397.838 291.93 396.183 289.907 393.62ZM292.246 391.987C293.847 393.897 296.133 395.103 298.613 395.347C301.093 395.59 303.57 394.852 305.511 393.289C307.652 391.994 309.196 389.907 309.81 387.482C310.424 385.056 310.059 382.486 308.792 380.328C307.189 378.414 304.9 377.204 302.415 376.957C299.931 376.71 297.448 377.445 295.499 379.005C293.375 380.319 291.85 382.414 291.252 384.839C290.653 387.264 291.028 389.827 292.296 391.979L292.246 391.987Z" fill="#89A83D"/>
<path d="M304.565 381.592C305.59 382.716 306.248 384.126 306.453 385.633C306.658 387.141 306.398 388.675 305.71 390.032C305.022 391.389 303.937 392.504 302.599 393.229C301.262 393.955 299.735 394.256 298.223 394.093C296.71 393.929 295.283 393.31 294.131 392.316C292.979 391.322 292.157 390.001 291.773 388.529C291.39 387.057 291.464 385.503 291.985 384.073C292.506 382.644 293.45 381.407 294.692 380.527C296.15 379.38 298 378.849 299.845 379.048C301.69 379.247 303.384 380.16 304.565 381.592Z" fill="#D2D926"/>
<path d="M316.755 345.396C317.997 346.753 318.795 348.457 319.045 350.279C319.294 352.102 318.983 353.958 318.152 355.599C317.321 357.24 316.01 358.59 314.393 359.468C312.776 360.345 310.931 360.71 309.101 360.513C307.272 360.316 305.547 359.567 304.154 358.365C302.761 357.163 301.767 355.566 301.304 353.785C300.842 352.005 300.932 350.126 301.564 348.398C302.196 346.67 303.338 345.175 304.84 344.113C306.592 342.707 308.83 342.053 311.063 342.293C313.296 342.533 315.343 343.649 316.755 345.396Z" fill="#A5CD3A"/>
<path d="M300.937 356.663C299.565 354.425 299.125 351.739 299.713 349.181C300.302 346.623 301.87 344.399 304.081 342.985C306.155 341.374 308.779 340.644 311.387 340.954C313.994 341.264 316.374 342.589 318.011 344.642C319.402 346.875 319.852 349.567 319.263 352.13C318.673 354.694 317.093 356.919 314.866 358.32C312.797 359.94 310.17 360.676 307.56 360.365C304.949 360.055 302.568 358.724 300.937 356.663ZM303.297 355.001C303.884 355.736 304.611 356.346 305.435 356.798C306.26 357.25 307.166 357.533 308.101 357.632C309.036 357.731 309.981 357.643 310.882 357.374C311.783 357.105 312.621 356.659 313.348 356.064C314.911 355.063 316.02 353.491 316.439 351.683C316.857 349.875 316.552 347.975 315.588 346.39C314.391 344.964 312.682 344.065 310.83 343.886C308.977 343.707 307.128 344.262 305.68 345.432C304.088 346.399 302.939 347.953 302.482 349.759C302.024 351.565 302.295 353.479 303.234 355.087L303.297 355.001Z" fill="#89A83D"/>
<path d="M311.672 347.529C312.376 348.295 312.831 349.257 312.977 350.287C313.123 351.317 312.954 352.367 312.492 353.299C312.03 354.231 311.296 355.002 310.388 355.509C309.48 356.016 308.439 356.236 307.403 356.14C306.367 356.044 305.384 355.636 304.584 354.971C303.784 354.306 303.205 353.414 302.922 352.413C302.639 351.412 302.665 350.348 302.998 349.362C303.332 348.377 303.955 347.515 304.788 346.891C305.278 346.473 305.847 346.158 306.462 345.964C307.076 345.769 307.723 345.7 308.364 345.759C309.006 345.819 309.629 346.006 310.197 346.31C310.765 346.614 311.267 347.028 311.672 347.529Z" fill="#D2D926"/>
<path d="M299.444 382.995C299.946 383.913 300.093 384.983 299.856 386.003C299.62 387.022 299.017 387.919 298.162 388.522C297.307 389.125 296.26 389.393 295.22 389.274C294.181 389.155 293.221 388.658 292.524 387.878C292.022 386.96 291.876 385.889 292.112 384.87C292.349 383.85 292.952 382.954 293.807 382.35C294.662 381.747 295.709 381.479 296.748 381.598C297.788 381.717 298.748 382.214 299.444 382.995Z" fill="#E6E01C"/>
<path d="M308.489 348.148C308.83 348.789 308.925 349.533 308.757 350.239C308.589 350.945 308.17 351.566 307.577 351.985C306.984 352.404 306.259 352.593 305.537 352.515C304.815 352.438 304.146 352.1 303.655 351.565C303.315 350.924 303.219 350.18 303.387 349.474C303.555 348.768 303.975 348.147 304.568 347.728C305.161 347.309 305.886 347.121 306.608 347.198C307.33 347.275 307.999 347.613 308.489 348.148Z" fill="#E6E01C"/>
<path d="M262.869 574.807L256.607 545.837L248.124 548.827L252.104 564.858L251.126 565.111L246.901 548.152L257.338 544.479L263.883 574.625L262.869 574.807Z" fill="#BC2B28"/>
<path d="M248.479 553.092L248.176 552.123L257.494 549.436L257.797 550.405L248.479 553.092Z" fill="#BC2B28"/>
<path d="M252.558 565.982C252.847 567.368 252.584 568.813 251.824 570.008C251.064 571.203 249.868 572.054 248.49 572.381C247.17 572.905 245.698 572.892 244.388 572.344C243.077 571.796 242.033 570.757 241.48 569.45C241.205 568.078 241.471 566.653 242.221 565.472C242.97 564.29 244.147 563.444 245.505 563.108C246.822 562.558 248.303 562.551 249.624 563.09C250.946 563.628 252.001 564.668 252.558 565.982Z" fill="#E6352E"/>
<path d="M240.99 569.577C240.677 568.057 240.975 566.475 241.821 565.174C242.666 563.873 243.99 562.957 245.506 562.626C246.954 562.049 248.57 562.069 250.003 562.681C251.436 563.293 252.568 564.446 253.153 565.89C253.5 567.412 253.233 569.009 252.411 570.335C251.588 571.661 250.276 572.609 248.759 572.975C247.304 573.532 245.687 573.497 244.257 572.877C242.827 572.258 241.695 571.103 241.105 569.661L240.99 569.577ZM241.989 569.295C242.494 570.474 243.443 571.406 244.632 571.889C245.82 572.371 247.151 572.365 248.335 571.872C249.588 571.591 250.681 570.831 251.379 569.753C252.077 568.676 252.325 567.367 252.069 566.109C251.546 564.938 250.591 564.013 249.403 563.529C248.216 563.045 246.887 563.039 245.694 563.512C244.442 563.798 243.352 564.564 242.659 565.646C241.966 566.728 241.725 568.038 241.989 569.295Z" fill="#BC2B28"/>
<path d="M264.017 574.503C264.322 575.889 264.07 577.34 263.314 578.541C262.558 579.743 261.36 580.598 259.978 580.922C258.659 581.456 257.182 581.448 255.869 580.899C254.557 580.35 253.514 579.305 252.967 577.991C252.67 576.598 252.932 575.144 253.697 573.942C254.461 572.739 255.668 571.886 257.056 571.564C258.37 571.046 259.834 571.063 261.136 571.613C262.437 572.162 263.471 573.2 264.017 574.503Z" fill="#E6352E"/>
<path d="M252.457 578.147C252.125 576.623 252.405 575.03 253.238 573.712C254.071 572.394 255.39 571.457 256.908 571.104C258.356 570.528 259.972 570.547 261.405 571.159C262.838 571.771 263.97 572.925 264.555 574.369C264.892 575.889 264.621 577.481 263.8 578.805C262.98 580.129 261.674 581.079 260.162 581.453C258.706 582.009 257.091 581.976 255.659 581.363C254.227 580.75 253.089 579.604 252.486 578.167L252.457 578.147ZM253.448 577.815C253.956 578.999 254.91 579.935 256.103 580.421C257.296 580.907 258.632 580.904 259.823 580.413C261.071 580.136 262.16 579.38 262.854 578.307C263.549 577.234 263.794 575.931 263.536 574.679C263.026 573.501 262.077 572.569 260.891 572.078C259.705 571.588 258.375 571.579 257.182 572.053C255.934 572.341 254.846 573.103 254.149 574.179C253.453 575.254 253.201 576.558 253.448 577.815Z" fill="#BC2B28"/>
<path d="M250.513 566.07C250.731 567.131 250.551 568.235 250.007 569.171C249.462 570.107 248.592 570.81 247.563 571.146C246.533 571.481 245.416 571.425 244.425 570.989C243.433 570.553 242.638 569.767 242.189 568.781C241.971 567.72 242.151 566.616 242.695 565.68C243.24 564.744 244.11 564.041 245.139 563.706C246.169 563.37 247.286 563.426 248.277 563.862C249.269 564.298 250.064 565.084 250.513 566.07Z" fill="#E77978"/>
<path d="M261.979 574.64C262.157 575.186 262.226 575.763 262.181 576.336C262.136 576.909 261.979 577.467 261.719 577.98C261.458 578.492 261.099 578.948 260.662 579.322C260.225 579.695 259.719 579.979 259.173 580.157C258.626 580.335 258.05 580.404 257.477 580.359C256.904 580.314 256.345 580.157 255.833 579.897C255.321 579.636 254.865 579.277 254.491 578.84C254.118 578.404 253.834 577.898 253.656 577.351C253.296 576.247 253.39 575.046 253.916 574.011C254.442 572.977 255.358 572.193 256.462 571.834C257.566 571.474 258.767 571.568 259.802 572.094C260.836 572.62 261.619 573.536 261.979 574.64Z" fill="#E77978"/>
<path d="M248.62 565.829C248.772 566.565 248.63 567.331 248.224 567.964C247.819 568.597 247.182 569.045 246.45 569.215C245.752 569.497 244.971 569.491 244.277 569.198C243.584 568.905 243.035 568.349 242.751 567.652C242.694 566.951 242.874 566.251 243.264 565.665C243.653 565.079 244.229 564.642 244.897 564.424C245.566 564.206 246.289 564.22 246.949 564.463C247.608 564.707 248.167 565.166 248.534 565.766L248.62 565.829Z" fill="#E7A8A8"/>
<path d="M260.178 574.334C260.33 575.07 260.188 575.836 259.782 576.469C259.377 577.102 258.74 577.551 258.008 577.72C257.666 577.894 257.291 577.992 256.907 578.006C256.524 578.02 256.143 577.949 255.79 577.8C255.436 577.651 255.12 577.427 254.863 577.142C254.606 576.858 254.414 576.521 254.301 576.154C254.188 575.788 254.156 575.401 254.208 575.022C254.26 574.642 254.395 574.278 254.602 573.956C254.81 573.633 255.086 573.36 255.41 573.156C255.734 572.951 256.099 572.82 256.479 572.772C257.178 572.499 257.955 572.509 258.646 572.801C259.337 573.093 259.887 573.643 260.178 574.334Z" fill="#E7A8A8"/>
<path d="M141.057 500.253C131.87 497.56 122.482 495.605 112.983 494.405C112.847 494.372 112.719 494.313 112.606 494.23C112.493 494.147 112.397 494.043 112.324 493.923C112.246 493.813 112.192 493.688 112.168 493.556C112.143 493.424 112.147 493.288 112.18 493.157L117.192 473.803C117.221 473.686 117.274 473.577 117.347 473.481C117.421 473.386 117.512 473.306 117.617 473.247C117.722 473.188 117.838 473.151 117.958 473.138C118.078 473.125 118.199 473.137 118.314 473.172C118.552 473.23 118.758 473.379 118.885 473.588C119.013 473.797 119.052 474.049 118.995 474.287L114.384 492.613C123.651 493.87 132.808 495.835 141.776 498.49C141.895 498.515 142.008 498.565 142.107 498.637C142.205 498.709 142.287 498.801 142.347 498.907C142.407 499.014 142.443 499.132 142.454 499.253C142.464 499.375 142.448 499.497 142.407 499.612C142.311 499.828 142.143 500.003 141.93 500.105C141.718 500.208 141.476 500.232 141.248 500.173L141.057 500.253Z" fill="#EBAD20"/>
<path d="M125.3 496.642C125.061 496.591 124.85 496.452 124.711 496.251C124.571 496.051 124.513 495.805 124.549 495.563L127.118 480.628C127.17 480.384 127.312 480.168 127.515 480.024C127.719 479.879 127.969 479.817 128.217 479.848C128.338 479.869 128.453 479.914 128.556 479.979C128.659 480.045 128.748 480.13 128.818 480.23C128.888 480.331 128.937 480.444 128.963 480.563C128.989 480.683 128.991 480.806 128.968 480.927L126.379 495.89L126.274 496.034C126.189 496.229 126.042 496.391 125.855 496.493C125.669 496.596 125.453 496.633 125.243 496.6L125.3 496.642Z" fill="#EBAD20"/>
<path d="M143.944 499.196C145.004 499.549 145.983 500.108 146.825 500.842C147.667 501.575 148.356 502.468 148.851 503.469C149.346 504.47 149.638 505.559 149.71 506.674C149.782 507.788 149.632 508.906 149.27 509.962C148.317 511.991 146.627 513.581 144.544 514.407C142.46 515.234 140.14 515.235 138.055 514.411C135.971 513.586 134.279 511.998 133.325 509.97C132.37 507.942 132.225 505.626 132.918 503.495C133.821 501.472 135.484 499.886 137.548 499.081C139.612 498.277 141.91 498.318 143.944 499.196Z" fill="#F4C621"/>
<path d="M137.698 515.005C135.361 514.186 133.445 512.473 132.371 510.242C131.297 508.011 131.152 505.445 131.969 503.107C132.969 500.846 134.826 499.073 137.131 498.178C139.437 497.282 142.004 497.338 144.268 498.333C145.426 498.733 146.493 499.359 147.407 500.174C148.321 500.989 149.065 501.978 149.595 503.082C150.125 504.186 150.431 505.385 150.495 506.608C150.559 507.831 150.38 509.055 149.969 510.209C148.968 512.471 147.112 514.244 144.806 515.139C142.501 516.034 139.934 515.978 137.669 514.984L137.698 515.005ZM138.367 513.249C140.173 514.074 142.233 514.148 144.094 513.455C145.955 512.762 147.464 511.359 148.292 509.554C148.918 507.675 148.779 505.625 147.905 503.848C147.03 502.071 145.491 500.71 143.62 500.059C141.813 499.245 139.757 499.176 137.898 499.868C136.04 500.56 134.53 501.957 133.696 503.755C133.06 505.634 133.194 507.688 134.07 509.467C134.945 511.247 136.491 512.607 138.367 513.249Z" fill="#EBAD20"/>
<path d="M141.983 501.634C142.735 501.893 143.429 502.299 144.025 502.827C144.62 503.355 145.106 503.995 145.453 504.712C145.8 505.428 146.002 506.206 146.047 507C146.092 507.795 145.98 508.591 145.717 509.342C145.09 510.909 143.866 512.162 142.315 512.826C140.764 513.49 139.012 513.511 137.446 512.884C135.879 512.257 134.626 511.033 133.962 509.482C133.298 507.931 133.277 506.179 133.904 504.613C134.234 503.882 134.705 503.225 135.292 502.678C135.878 502.132 136.567 501.708 137.319 501.431C138.071 501.153 138.871 501.029 139.671 501.064C140.472 501.099 141.258 501.293 141.983 501.634Z" fill="#F4DB08"/>
<path d="M140.036 503.511C140.769 503.878 141.38 504.449 141.794 505.156C142.209 505.863 142.408 506.675 142.369 507.494C142.331 508.312 142.055 509.102 141.575 509.766C141.096 510.431 140.433 510.941 139.669 511.236C138.904 511.531 138.071 511.598 137.269 511.428C136.468 511.257 135.733 510.858 135.154 510.278C134.576 509.697 134.178 508.961 134.01 508.159C133.842 507.357 133.911 506.524 134.208 505.76C134.442 505.229 134.778 504.749 135.198 504.348C135.618 503.947 136.113 503.633 136.655 503.424C137.196 503.215 137.774 503.115 138.354 503.13C138.934 503.145 139.506 503.275 140.036 503.511Z" fill="#F4E400"/>
<path d="M329.592 491.606L330.483 490.63L349.649 508.225L348.758 509.202L329.592 491.606Z" fill="#C91E7C"/>
<path d="M328.892 491.18C332.611 488.999 335.726 485.922 337.953 482.23C339.82 479.679 346.227 486.922 344.109 491.139C341.714 494.712 338.427 497.94 336.484 497.046L328.892 491.18Z" fill="#E32888"/>
<path d="M336.257 497.716L328.629 491.78L327.855 491.213L328.674 490.756L330.126 489.795C331.246 489.032 332.314 488.196 333.322 487.292C335.037 485.853 336.448 484.089 337.475 482.1C337.53 481.967 337.616 481.849 337.727 481.756C339.297 480.573 341.145 481.837 342.584 483.419C343.681 484.467 344.46 485.804 344.832 487.275C345.203 488.746 345.152 490.292 344.684 491.736C343.597 493.388 342.312 494.901 340.858 496.242C339.36 497.566 337.814 498.415 336.209 497.901L336.257 497.716ZM340.062 495.043C341.411 493.799 342.602 492.394 343.608 490.86C344.567 489.009 343.388 485.989 341.647 484.098C341.097 483.482 340.423 482.989 339.67 482.65C339.154 482.273 338.751 482.462 338.596 482.613C337.523 484.755 336.016 486.65 334.171 488.177C332.901 489.295 331.558 490.326 330.15 491.265L336.939 496.543C337.427 496.899 338.755 496.287 340.112 495.035L340.062 495.043Z" fill="#C91E7C"/>
<path d="M280.46 456.917L280.85 456.806L280.121 457.02C272.438 458.616 269.278 450.184 269.278 450.184C269.278 450.184 272.44 458.793 264.746 461.305L264.336 461.445L264.21 461.617L264.72 461.462C272.591 459.609 275.704 468.226 275.704 468.226C275.704 468.226 272.714 459.742 280.044 457.185L280.703 457.007L280.46 456.917Z" fill="white"/>
<path d="M313.866 305.204L314.206 305.1L313.497 305.286C305.793 306.91 302.683 298.471 302.683 298.471C302.683 298.471 305.817 307.059 298.152 309.592L297.713 309.711L297.587 309.883L298.097 309.728C305.997 307.895 309.109 316.512 309.109 316.512C309.109 316.512 306.119 308.029 313.421 305.45L314.08 305.272L313.866 305.204Z" fill="white"/>
<path d="M340.007 807.94L339.638 808.022C338.506 808.163 337.359 807.91 336.391 807.306C335.423 806.701 334.692 805.782 334.321 804.702C334.321 804.702 335.719 808.807 332.09 810.156C333.239 809.968 334.417 810.198 335.411 810.804C336.405 811.411 337.148 812.353 337.506 813.461C337.506 813.461 336.109 809.356 339.638 808.022L339.957 807.948L340.007 807.94Z" fill="white"/>
<path d="M315.39 429.045L315.029 429.177C313.91 429.287 312.787 429.013 311.843 428.403C310.899 427.792 310.19 426.879 309.832 425.813C309.832 425.813 311.373 430.023 307.629 431.288L307.755 431.116C308.903 430.935 310.078 431.168 311.07 431.774C312.062 432.379 312.807 433.317 313.172 434.421C313.172 434.421 311.753 430.345 315.311 429.032L315.623 428.908L315.39 429.045Z" fill="white"/>
<path d="M314.388 528.192L313.999 528.303C312.859 528.43 311.711 528.161 310.746 527.543C309.78 526.924 309.056 525.993 308.695 524.905C308.695 524.905 310.243 529.164 306.471 530.409C307.62 530.22 308.798 530.45 309.792 531.057C310.786 531.663 311.529 532.606 311.887 533.713C311.887 533.713 310.49 529.609 314.02 528.275L314.338 528.2C314.338 528.2 314.409 528.164 314.388 528.192Z" fill="white"/>
<path d="M254.44 420.482L254.801 420.35L254.072 420.564C246.397 422.209 243.307 413.741 243.307 413.741C243.307 413.741 246.42 422.358 238.755 424.891L238.316 425.01L238.421 424.866L238.295 425.038L238.755 424.891C246.676 423.03 249.817 431.668 249.817 431.668C249.817 431.668 246.798 423.164 254.129 420.606L254.759 420.407L254.44 420.482Z" fill="white"/>
<path d="M337.171 233.737L337.532 233.605L336.802 233.82C329.148 235.436 325.988 227.004 325.988 227.004C325.988 227.004 329.122 235.593 321.457 238.126L321.018 238.244L321.123 238.101L320.997 238.273L321.486 238.147C329.407 236.286 332.519 244.903 332.519 244.903C332.519 244.903 329.558 236.44 336.802 233.82L337.461 233.642L337.171 233.737Z" fill="white"/>
<path d="M191.922 445.149L192.312 445.038L191.582 445.252C183.9 446.848 180.761 438.387 180.761 438.387C180.761 438.387 183.902 447.025 176.208 449.537L175.798 449.677L175.529 449.744L176.038 449.589C183.939 447.757 187.08 456.395 187.08 456.395C187.08 456.395 184.061 447.89 191.413 445.304L192.071 445.126L191.922 445.149Z" fill="white"/>
<path d="M265.383 632.48L265.099 632.448C263.96 632.581 262.809 632.319 261.84 631.705C260.871 631.092 260.141 630.165 259.774 629.078C259.774 629.078 261.15 633.211 257.521 634.56L257.647 634.388C258.836 634.238 260.039 634.527 261.029 635.203C262.018 635.879 262.726 636.894 263.018 638.056C263.018 638.056 261.621 633.952 265.15 632.618L265.469 632.543L265.383 632.48Z" fill="white"/>
<path d="M317.948 672.763L317.609 672.867C316.468 673.006 315.315 672.747 314.344 672.133C313.374 671.519 312.645 670.587 312.284 669.497C312.284 669.497 313.832 673.756 310.06 675L310.186 674.828C311.334 674.655 312.507 674.894 313.495 675.505C314.483 676.115 315.223 677.057 315.581 678.162C315.581 678.162 314.184 674.057 317.713 672.723L318.053 672.62L317.948 672.763Z" fill="white"/>
<path d="M216.381 673.203L216.486 673.06L216.125 673.192C214.987 673.318 213.839 673.053 212.872 672.441C211.904 671.829 211.173 670.905 210.8 669.822C210.8 669.822 212.32 674.06 208.597 675.297L208.493 675.44L208.618 675.268C209.766 675.088 210.941 675.321 211.933 675.926C212.926 676.531 213.67 677.469 214.035 678.573C214.035 678.573 212.616 674.497 216.146 673.163L216.486 673.06L216.381 673.203Z" fill="white"/>
<path d="M214.544 725.563C214.671 725.516 214.801 725.479 214.933 725.452L214.418 725.735C206.714 727.359 203.604 718.92 203.604 718.92C203.604 718.92 206.688 727.516 199.023 730.049L198.634 730.16C198.634 730.16 198.634 730.16 198.508 730.332L199.025 730.226C206.897 728.373 210.03 736.962 210.03 736.962C210.03 736.962 206.988 728.308 214.418 725.735L215.077 725.557L214.544 725.563Z" fill="white"/>
<path d="M297.184 641.055L297.098 640.992C295.958 641.132 294.804 640.873 293.833 640.258C292.863 639.644 292.135 638.713 291.773 637.622C291.773 637.622 293.149 641.756 289.52 643.105C290.669 642.924 291.843 643.157 292.836 643.763C293.828 644.368 294.572 645.306 294.937 646.41C294.937 646.41 293.539 642.305 297.069 640.971L297.409 640.868L297.184 641.055Z" fill="white"/>
<path d="M52.9112 647.919L53.251 647.816L52.5427 648.002C44.8676 649.647 41.7497 641.157 41.7497 641.157C41.7497 641.157 44.8697 649.824 37.1972 652.307L36.7581 652.426L36.863 652.283L36.7372 652.455L37.2259 652.328C45.1261 650.496 48.2594 659.085 48.2594 659.085C48.2594 659.085 45.2485 650.63 52.5923 647.994L53.251 647.816L52.9112 647.919Z" fill="white"/>
<path d="M316.023 762.167L315.655 762.25C314.516 762.389 313.363 762.134 312.39 761.526C311.417 760.918 310.682 759.994 310.309 758.909C310.309 758.909 311.878 763.139 308.106 764.383L308.001 764.527L308.148 764.326C309.323 764.099 310.54 764.309 311.571 764.918C312.601 765.526 313.374 766.49 313.742 767.629C313.742 767.629 312.345 763.524 315.874 762.19L316.193 762.116C316.193 762.116 316.044 762.139 316.023 762.167Z" fill="white"/>
<path d="M285.738 548.688L285.484 548.854C284.372 548.952 283.26 548.672 282.326 548.06C281.393 547.449 280.692 546.541 280.337 545.483C280.337 545.483 281.734 549.587 278.105 550.936C279.259 550.764 280.436 551.003 281.432 551.611C282.427 552.219 283.177 553.157 283.551 554.262C283.551 554.262 282.153 550.158 285.633 548.831L285.973 548.728C285.973 548.728 285.767 548.709 285.738 548.688Z" fill="white"/>
<defs>
<linearGradient id="paint0_linear_25_5108" x1="335.676" y1="298.982" x2="316.187" y2="276.836" gradientUnits="userSpaceOnUse">
<stop offset="0.11" stop-color="#FFFB74"/>
<stop offset="0.49" stop-color="#FFFA00"/>
<stop offset="0.93" stop-color="#FFC921"/>
</linearGradient>
<radialGradient id="paint1_radial_25_5108" cx="0" cy="0" r="1" gradientUnits="userSpaceOnUse" gradientTransform="translate(316.424 274.925) rotate(-53.7952) scale(30.9245 31.2306)">
<stop offset="0.41" stop-color="#FFFB62"/>
<stop offset="0.85" stop-color="#F39F46"/>
</radialGradient>
</defs>
</svg>
